<svg xmlns="http://www.w3.org/2000/svg" height="800" width="1200" viewBox="-6.410505 -4.348375 55.55771 26.09025"><path d="M27.3512 4.9828c-.557.5701-.557 1.494 0 2.0641l1.955 1.9989c.1264.1439.6566.8138.4619 1.7197-.01.0466-.0011.0974.0342.1338a.1325.1325 0 00.1901 0l.5634-.5761.7204-.737c.7172-.7327.7172-1.9209 0-2.654l-1.9064-1.9494a1.4063 1.4063 0 00-2.0186 0m11.7106 11.9799c.5574-.5694.5574-1.4937 0-2.0634l-1.9554-1.9988c-.126-.1443-.6562-.8139-.4618-1.7202.0102-.0466.001-.0974-.0342-.1337a.133.133 0 00-.1902 0l-.563.576-.7207.7374c-.7169.7324-.7169 1.9205 0 2.6536l1.9067 1.949a1.4049 1.4049 0 002.0186 0m-11.7163-2.0574l9.7074-9.919a1.4059 1.4059 0 012.0147.001c.2766.2822.4149.6551.4152 1.0276.0007.3743-.138.7483-.4155 1.032l-9.7074 9.919a1.4018 1.4018 0 01-1.0076.4244 1.4059 1.4059 0 01-1.0075-.4248c-.2695-.277-.4085-.6392-.4152-1.0033-.0064-.3824.1323-.7666.416-1.057M2.1315 7.373h-.9638C.5228 7.373 0 6.8387 0 6.1797s.5228-1.193 1.1677-1.193h.9638V4.088c0-1.3942.3464-2.4335.9941-3.0953C3.7726.331 4.6743 0 5.8762 0c.5034 0 .9268.0377 1.3042.1013.5567.093.9614.592.9614 1.1694-.0007.6943-.5807 1.2404-1.2577 1.18a4.4617 4.4617 0 00-.3835-.0168c-1.0636 0-1.6185.5909-1.6185 1.8908v.6851h2.0803c.6382 0 1.1557.5292 1.1557 1.1818 0 .6527-.5175 1.1815-1.1557 1.1815H4.9283v8.5905c0 .7892-.6262 1.4294-1.398 1.4294-.7726 0-1.3988-.6402-1.3988-1.4294zm8.939-7.2312c.7723 0 1.3984.6403 1.3984 1.4294v14.3923c0 .7895-.6261 1.4298-1.3984 1.4298-.7722 0-1.3984-.6403-1.3984-1.4298V1.5712c0-.7891.6262-1.4294 1.3984-1.4294m12.4432 9.8546c.0723 0 .1298-.0653.1206-.139-.2233-1.7762-1.2792-3.146-3.0819-3.146-1.6679 0-2.8522 1.2809-3.146 3.1418-.0113.0741.0465.1432.12.1432zm-8.9017.9215v-.1708c0-3.9003 3.4269-6.9758 7.1783-6.265 3.078.5836 4.6334 3.4054 4.6334 6.6012-.0003.4442-.3524.8033-.7867.8033l-8.0846.0004c-.0748 0-.133.0713-.1196.1464.345 1.9403 1.7304 3.0205 3.4893 3.0205 1.0354 0 1.8444-.3003 2.5986-.8675.4392-.3313 1.039-.3203 1.4467.0494.5169.4688.5172 1.3074-.0172 1.754-1.0467.8742-2.3742 1.4037-4.074 1.4037-3.5365 0-6.2642-2.6236-6.2642-6.4756m27.4533 5.0164c0-.1238-.0893-.1859-.267-.1859h-.3172v.3958h.3048c.0889 0 .1577-.0173.206-.0522.0487-.0349.0734-.087.0734-.1576m-.018.6342c0-.0818-.0085-.1432-.0254-.1848a.1496.1496 0 00-.0864-.085c-.0399-.016-.0988-.0233-.1754-.0233h-.279v.4844H41.34v-1.1452h.4893c.1146 0 .206.0265.2744.0801.0681.053.1023.1302.1023.2318 0 .0737-.0169.1337-.0525.181-.0353.0473-.0868.0794-.1552.0974v.005c.0684.0208.1167.0543.1453.0998.0279.0455.042.1217.042.2279 0 .1083.0123.1824.0363.2226h-.141c-.0107-.0148-.0188-.0413-.0248-.0773a.6908.6908 0 01-.0088-.114m.5486-.3905c0-.1556-.037-.2995-.1118-.4321a.8476.8476 0 00-.3034-.3172c-.1284-.0787-.2706-.1178-.4255-.1178a.7878.7878 0 00-.4177.1164.8496.8496 0 00-.3051.316c-.0752.1324-.1129.2777-.1129.4347a.875.875 0 00.1111.4329.866.866 0 00.3041.3171.7965.7965 0 00.423.1175.8003.8003 0 00.423-.1175.8528.8528 0 00.3034-.3171.8681.8681 0 00.1118-.4329m-1.8175 0c0-.1834.0451-.352.1347-.5052.0897-.1541.2092-.2748.3599-.363a.9487.9487 0 01.4872-.1326c.176 0 .339.0448.4882.135.15.0894.2685.211.3563.3642.0882.153.132.32.132.5016 0 .1746-.0427.339-.1281.4932a1.0046 1.0046 0 01-.3507.3697c-.1492.0921-.315.1383-.4977.1383-.1796 0-.344-.0452-.4936-.1351a.9902.9902 0 01-.356-.3651.9896.9896 0 01-.1322-.501" fill="#0099de"/></svg>